<?xml version="1.0" encoding="UTF-8"?>
<svg id="Layer_2" data-name="Layer 2" xmlns="http://www.w3.org/2000/svg" xmlns:xlink="http://www.w3.org/1999/xlink" viewBox="0 0 165.82 116.98">
  <defs>
    <style>
      .cls-1 {
        letter-spacing: .38em;
      }

      .cls-2 {
        letter-spacing: .37em;
      }

      .cls-3 {
        letter-spacing: .38em;
      }

      .cls-4 {
        fill: url(#linear-gradient);
      }

      .cls-5 {
        font-family: Rubik-Regular, Rubik;
        font-size: 20px;
        font-variation-settings: 'wght' 400;
      }
    </style>
    <linearGradient id="linear-gradient" x1="0" y1="45.88" x2="164.7" y2="45.88" gradientUnits="userSpaceOnUse">
      <stop offset="0" stop-color="#7fffae"/>
      <stop offset="1" stop-color="#ffe26a"/>
    </linearGradient>
  </defs>
  <g id="Layer_1-2" data-name="Layer 1">
    <path class="cls-4" d="m162.42,58.4h-5.94c-.64,0-1.2.19-1.67.54-.47.37-.81,1.01-1.03,1.95-1.22,5.61-3.51,9.47-6.86,11.55-3.34,2.09-7.54,3.14-12.58,3.14-5.76,0-10.33-1.64-13.71-4.92-3.39-3.27-5.22-8.51-5.51-15.71-.22-6.19-.22-12.24,0-18.15.29-7.19,2.12-12.43,5.51-15.71,3.38-3.27,7.95-4.91,13.71-4.91,5.04,0,9.24,1.04,12.58,3.13,3.35,2.09,5.64,5.94,6.86,11.55.22.94.56,1.59,1.03,1.95.47.36,1.03.54,1.67.54h5.94c.65,0,1.21-.22,1.68-.65.46-.43.66-.97.59-1.62-.14-3.02-.86-5.96-2.16-8.8-1.3-2.84-3.19-5.42-5.67-7.72-2.48-2.31-5.6-4.14-9.34-5.51-3.75-1.37-8.1-2.05-13.07-2.05-6.62,0-12.11,1.22-16.47,3.67-3,1.69-5.5,3.83-7.48,6.44-1.63-2.71-4.02-4.87-7.17-6.49-3.42-1.77-7.83-2.65-13.23-2.65h-29.59c-.8,0-1.41.23-1.84.7-.43.47-.65,1.1-.65,1.89v43.79L41.15,10.15c-.29-.71-.71-1.29-1.25-1.72-.54-.44-1.27-.65-2.21-.65h-7.34c-1.01,0-1.77.21-2.27.65-.51.43-.9,1.01-1.19,1.72L.11,80.03c-.08.43-.11.83-.11,1.19,0,.58.21,1.08.65,1.51.43.43.93.65,1.51.65h5.51c.86,0,1.51-.22,1.94-.65s.68-.83.76-1.19l5.94-15.33h35.42l5.94,15.33c.14.36.41.76.81,1.19.09.1.19.18.3.25.42.4.99.59,1.73.59h30.34c5.26,0,9.67-.99,13.23-2.97,2.72-1.51,4.92-3.41,6.61-5.69,1.96,2.49,4.39,4.55,7.29,6.17,4.36,2.45,9.85,3.68,16.47,3.68,4.97,0,9.32-.69,13.07-2.06,3.74-1.36,6.86-3.2,9.34-5.5,2.48-2.31,4.37-4.88,5.67-7.73,1.3-2.84,2.02-5.77,2.16-8.8.07-.65-.13-1.19-.59-1.62-.47-.43-1.03-.65-1.68-.65Zm-142.98-1.48l14.58-38.34,14.58,38.34h-29.16Zm49.17-40.2h19.87c4.61,0,8.1.97,10.47,2.91,2.38,1.95,3.57,4.76,3.57,8.43s-1.19,6.57-3.57,8.69c-2.37,2.13-5.86,3.19-10.47,3.19h-19.87v-23.22Zm31.64,54.32c-2.52,2.52-6.12,3.78-10.8,3.78h-20.84v-26.24h20.84c4.68,0,8.28,1.24,10.8,3.72,2.52,2.49,3.78,5.64,3.78,9.45s-1.26,6.77-3.78,9.29Zm4.08-27.06c-.1-.05-.2-.1-.3-.15.1-.05.2-.11.3-.16-.01.1-.01.2,0,.31Z"/>
    <path d="m162.42,51.4h-5.94c-.64,0-1.2.19-1.67.54-.47.37-.81,1.01-1.03,1.95-1.22,5.61-3.51,9.47-6.86,11.55-3.34,2.09-7.54,3.14-12.58,3.14-5.76,0-10.33-1.64-13.71-4.92-3.39-3.27-5.22-8.51-5.51-15.71-.22-6.19-.22-12.24,0-18.15.29-7.19,2.12-12.43,5.51-15.71,3.38-3.27,7.95-4.91,13.71-4.91,5.04,0,9.24,1.04,12.58,3.13,3.35,2.09,5.64,5.94,6.86,11.55.22.94.56,1.59,1.03,1.95.47.36,1.03.54,1.67.54h5.94c.65,0,1.21-.22,1.68-.65.46-.43.66-.97.59-1.62-.14-3.02-.86-5.96-2.16-8.8-1.3-2.84-3.19-5.42-5.67-7.72-2.48-2.31-5.6-4.14-9.34-5.51-3.75-1.37-8.1-2.05-13.07-2.05-6.62,0-12.11,1.22-16.47,3.67-3,1.69-5.5,3.83-7.48,6.44-1.63-2.71-4.02-4.87-7.17-6.49-3.42-1.77-7.83-2.65-13.23-2.65h-29.59c-.8,0-1.41.23-1.84.7-.43.47-.65,1.1-.65,1.89v43.79L41.15,3.15c-.29-.71-.71-1.29-1.25-1.72-.54-.44-1.27-.65-2.21-.65h-7.34c-1.01,0-1.77.21-2.27.65-.51.43-.9,1.01-1.19,1.72L.11,73.03c-.08.43-.11.83-.11,1.19,0,.58.21,1.08.65,1.51.43.43.93.65,1.51.65h5.51c.86,0,1.51-.22,1.94-.65s.68-.83.76-1.19l5.94-15.33h35.42l5.94,15.33c.14.36.41.76.81,1.19.09.1.19.18.3.25.42.4.99.59,1.73.59h30.34c5.26,0,9.67-.99,13.23-2.97,2.72-1.51,4.92-3.41,6.61-5.69,1.96,2.49,4.39,4.55,7.29,6.17,4.36,2.45,9.85,3.68,16.47,3.68,4.97,0,9.32-.69,13.07-2.06,3.74-1.36,6.86-3.2,9.34-5.5,2.48-2.31,4.37-4.88,5.67-7.73,1.3-2.84,2.02-5.77,2.16-8.8.07-.65-.13-1.19-.59-1.62-.47-.43-1.03-.65-1.68-.65Zm-142.98-1.48l14.58-38.34,14.58,38.34h-29.16ZM68.61,9.72h19.87c4.61,0,8.1.97,10.47,2.91,2.38,1.95,3.57,4.76,3.57,8.43s-1.19,6.57-3.57,8.69c-2.37,2.13-5.86,3.19-10.47,3.19h-19.87V9.72Zm31.64,54.32c-2.52,2.52-6.12,3.78-10.8,3.78h-20.84v-26.24h20.84c4.68,0,8.28,1.24,10.8,3.72,2.52,2.49,3.78,5.64,3.78,9.45s-1.26,6.77-3.78,9.29Zm4.08-27.06c-.1-.05-.2-.1-.3-.15.1-.05.2-.11.3-.16-.01.1-.01.2,0,.31Z"/>
    <text class="cls-5" transform="translate(.18 107.65)"><tspan class="cls-1" x="0" y="0">IN</tspan><tspan class="cls-2" x="34.38" y="0">S</tspan><tspan class="cls-3" x="54.18" y="0">TITUTE</tspan></text>
  </g>
</svg>